%TF.GenerationSoftware,KiCad,Pcbnew,10.0.6*%
%TF.CreationDate,2026-10-01T11:25:30+10:00*%
%TF.ProjectId,Ac controller,41632063-6f6e-4747-926f-6c6c65722e6b,rev?*%
%TF.SameCoordinates,Original*%
%TF.FileFunction,Copper,L2,Bot*%
%TF.FilePolarity,Positive*%
%FSLAX46Y46*%
G04 Gerber Fmt 4.6, Leading zero omitted, Abs format (unit mm)*
G04 Created by KiCad (PCBNEW 10.0.6) date 2026-10-01 11:25:30*
%MOMM*%
%LPD*%
G01*
G04 APERTURE LIST*
G04 Aperture macros list*
%AMRoundRect*
0 Rectangle with rounded corners*
0 $1 Rounding radius*
0 $2 $3 $4 $5 $6 $7 $8 $9 X,Y pos of 4 corners*
0 Add a 4 corners polygon primitive as box body*
4,1,4,$2,$3,$4,$5,$6,$7,$8,$9,$2,$3,0*
0 Add four circle primitives for the rounded corners*
1,1,$1+$1,$2,$3*
1,1,$1+$1,$4,$5*
1,1,$1+$1,$6,$7*
1,1,$1+$1,$8,$9*
0 Add four rect primitives between the rounded corners*
20,1,$1+$1,$2,$3,$4,$5,0*
20,1,$1+$1,$4,$5,$6,$7,0*
20,1,$1+$1,$6,$7,$8,$9,0*
20,1,$1+$1,$8,$9,$2,$3,0*%
G04 Aperture macros list end*
%TA.AperFunction,WasherPad*%
%ADD10C,3.000000*%
%TD*%
%TA.AperFunction,ComponentPad*%
%ADD11R,1.700000X1.700000*%
%TD*%
%TA.AperFunction,ComponentPad*%
%ADD12O,1.700000X1.700000*%
%TD*%
%TA.AperFunction,SMDPad,CuDef*%
%ADD13RoundRect,0.250000X-0.250000X-1.500000X0.250000X-1.500000X0.250000X1.500000X-0.250000X1.500000X0*%
%TD*%
%TA.AperFunction,SMDPad,CuDef*%
%ADD14RoundRect,0.250001X-0.499999X-1.449999X0.499999X-1.449999X0.499999X1.449999X-0.499999X1.449999X0*%
%TD*%
%TA.AperFunction,SMDPad,CuDef*%
%ADD15RoundRect,0.500000X-0.875000X-0.500000X0.875000X-0.500000X0.875000X0.500000X-0.875000X0.500000X0*%
%TD*%
%TA.AperFunction,SMDPad,CuDef*%
%ADD16C,1.700000*%
%TD*%
%TA.AperFunction,SMDPad,CuDef*%
%ADD17RoundRect,0.275000X0.275000X-0.975000X0.275000X0.975000X-0.275000X0.975000X-0.275000X-0.975000X0*%
%TD*%
%TA.AperFunction,ViaPad*%
%ADD18C,0.600000*%
%TD*%
%TA.AperFunction,Conductor*%
%ADD19C,0.200000*%
%TD*%
G04 APERTURE END LIST*
D10*
%TO.P,U2,*%
%TO.N,*%
X154350000Y-48200000D03*
X154350000Y-72000000D03*
X177650000Y-48200000D03*
X177650000Y-72000000D03*
D11*
%TO.P,U2,1,GND_1*%
%TO.N,Net-(U2-GND)*%
X162190000Y-47700000D03*
D12*
%TO.P,U2,2,VCC_2*%
%TO.N,Net-(U2-VCC)*%
X164730000Y-47700000D03*
%TO.P,U2,3,SCL_3*%
%TO.N,Net-(U1-D5)*%
X167270000Y-47700000D03*
%TO.P,U2,4,SDA_4*%
%TO.N,Net-(U1-D4)*%
X169810000Y-47700000D03*
%TD*%
D13*
%TO.P,J1,1,Pin_1_1*%
%TO.N,Net-(J1-Pin_1)*%
X164500000Y-75850000D03*
%TO.P,J1,2,Pin_2_2*%
%TO.N,Net-(J1-Pin_2)*%
X166500000Y-75850000D03*
D14*
%TO.P,J1,MP*%
%TO.N,N/C*%
X162150000Y-70100000D03*
X168850000Y-70100000D03*
%TD*%
D15*
%TO.P,U1,1,D0_1*%
%TO.N,Net-(U1-D0)*%
X158186400Y-96651700D03*
%TO.P,U1,2,D1_2*%
%TO.N,Net-(U1-D1)*%
X158186400Y-94111700D03*
%TO.P,U1,3,D2_3*%
%TO.N,Net-(U1-D2)*%
X158186400Y-91571700D03*
%TO.P,U1,4,D3_4*%
%TO.N,unconnected-(U1-D3-Pad4)*%
X158186400Y-89031700D03*
%TO.P,U1,5,D4_5*%
%TO.N,Net-(U1-D4)*%
X158186400Y-86491700D03*
%TO.P,U1,6,D5_6*%
%TO.N,Net-(U1-D5)*%
X158186400Y-83951700D03*
%TO.P,U1,7,D6_7*%
%TO.N,unconnected-(U1-D6-Pad7)*%
X158186400Y-81411700D03*
%TO.P,U1,8,D7_8*%
%TO.N,unconnected-(U1-D7-Pad8)*%
X174351400Y-81411700D03*
%TO.P,U1,9,D8_9*%
%TO.N,unconnected-(U1-D8-Pad9)*%
X174351400Y-83951700D03*
%TO.P,U1,10,D9_10*%
%TO.N,unconnected-(U1-D9-Pad10)*%
X174351400Y-86491700D03*
%TO.P,U1,11,D10_11*%
%TO.N,unconnected-(U1-D10-Pad11)*%
X174351400Y-89031700D03*
%TO.P,U1,12,3V3_OUT_12*%
%TO.N,Net-(U2-VCC)*%
X174351400Y-91571700D03*
%TO.P,U1,13,GND_13*%
%TO.N,Net-(U2-GND)*%
X174351400Y-94111700D03*
%TO.P,U1,14,VBUS_14*%
%TO.N,unconnected-(U1-VBUS-Pad14)*%
X174351400Y-96651700D03*
D16*
%TO.P,U1,15,MTDI_15*%
%TO.N,unconnected-(U1-MTDI-Pad15)*%
X164968000Y-97673200D03*
%TO.P,U1,16,MTDO_16*%
%TO.N,unconnected-(U1-MTDO-Pad16)*%
X167508000Y-97673200D03*
%TO.P,U1,17,EN_17*%
%TO.N,unconnected-(U1-EN-Pad17)*%
X164968000Y-95133200D03*
%TO.P,U1,18,GND_18*%
%TO.N,unconnected-(U1-GND-Pad18)*%
X167508000Y-95133200D03*
%TO.P,U1,19,MTMS_19*%
%TO.N,unconnected-(U1-MTMS-Pad19)*%
X164968000Y-92593200D03*
%TO.P,U1,20,MTCK_20*%
%TO.N,unconnected-(U1-MTCK-Pad20)*%
X167508000Y-92593200D03*
%TO.P,U1,21,BOOT_21*%
%TO.N,unconnected-(U1-BOOT-Pad21)*%
X164968000Y-90053200D03*
%TO.P,U1,22,3V3_OUT_22*%
%TO.N,unconnected-(U1-3V3_OUT-Pad22)*%
X167415400Y-90110000D03*
D17*
%TO.P,U1,23,VBAT_23*%
%TO.N,Net-(J1-Pin_1)*%
X164460000Y-83500000D03*
%TO.P,U1,24,GND_24*%
%TO.N,Net-(J1-Pin_2)*%
X167000000Y-83500000D03*
%TD*%
D18*
%TO.N,Net-(U1-D2)*%
X161545000Y-92500000D03*
%TO.N,Net-(U1-D0)*%
X180200000Y-82500000D03*
%TO.N,Net-(U1-D1)*%
X152500000Y-82000000D03*
%TO.N,Net-(U2-GND)*%
X163455773Y-92955773D03*
X178000000Y-92500000D03*
%TD*%
%TO.N,Net-(U1-D2)*%
D19*
X158186400Y-91571700D02*
X158186400Y-91598058D01*
X160616700Y-91571700D02*
X161545000Y-92500000D01*
X158186400Y-91571700D02*
X160616700Y-91571700D01*
%TO.N,Net-(U1-D0)*%
X158186400Y-96651700D02*
X160357900Y-98823200D01*
X175259228Y-98823200D02*
X180200000Y-93882428D01*
X180200000Y-93882428D02*
X180200000Y-82500000D01*
X160357900Y-98823200D02*
X175259228Y-98823200D01*
%TO.N,Net-(U1-D1)*%
X151600000Y-87525300D02*
X151600000Y-82900000D01*
X158186400Y-94111700D02*
X151600000Y-87525300D01*
X151600000Y-82900000D02*
X152500000Y-82000000D01*
%TO.N,Net-(J1-Pin_1)*%
X164500000Y-83460000D02*
X164460000Y-83500000D01*
X164500000Y-75850000D02*
X164500000Y-83460000D01*
%TO.N,Net-(J1-Pin_2)*%
X166500000Y-75850000D02*
X166500000Y-83000000D01*
X166500000Y-83000000D02*
X167000000Y-83500000D01*
%TO.N,Net-(U2-GND)*%
X174351400Y-94111700D02*
X176388300Y-94111700D01*
X176388300Y-94111700D02*
X178000000Y-92500000D01*
X162428346Y-93983200D02*
X174222900Y-93983200D01*
X174222900Y-93983200D02*
X174351400Y-94111700D01*
X163500000Y-51810000D02*
X162190000Y-50500000D01*
X163455773Y-92955773D02*
X163500000Y-92911546D01*
X163455773Y-92955773D02*
X162428346Y-93983200D01*
X162190000Y-50500000D02*
X162190000Y-47700000D01*
X163500000Y-92911546D02*
X163500000Y-51810000D01*
%TO.N,Net-(U2-VCC)*%
X170567758Y-53537758D02*
X164730000Y-47700000D01*
X170567758Y-87788058D02*
X170567758Y-53537758D01*
X174351400Y-91571700D02*
X170567758Y-87788058D01*
%TO.N,Net-(U1-D4)*%
X171469258Y-96283200D02*
X173137758Y-97951700D01*
X162028346Y-93817514D02*
X162028346Y-94148885D01*
X173137758Y-97951700D02*
X175565042Y-97951700D01*
X179450000Y-54584315D02*
X176694315Y-54584315D01*
X179450000Y-94066742D02*
X179450000Y-54584315D01*
X175565042Y-97951700D02*
X179450000Y-94066742D01*
X162500000Y-93345860D02*
X162028346Y-93817514D01*
X162500000Y-90805300D02*
X162500000Y-93345860D01*
X176694315Y-54584315D02*
X169810000Y-47700000D01*
X164162661Y-96283200D02*
X171469258Y-96283200D01*
X162028346Y-94148885D02*
X164162661Y-96283200D01*
X158186400Y-86491700D02*
X162500000Y-90805300D01*
%TO.N,Net-(U1-D5)*%
X160974315Y-46550000D02*
X166120000Y-46550000D01*
X166120000Y-46550000D02*
X167270000Y-47700000D01*
X159861400Y-47662915D02*
X159861400Y-82276700D01*
X159861400Y-82276700D02*
X158186400Y-83951700D01*
X159861400Y-47662915D02*
X160974315Y-46550000D01*
%TD*%
M02*
