%TF.GenerationSoftware,KiCad,Pcbnew,10.0.6*%
%TF.CreationDate,2026-10-01T11:25:30+10:00*%
%TF.ProjectId,Ac controller,41632063-6f6e-4747-926f-6c6c65722e6b,rev?*%
%TF.SameCoordinates,Original*%
%TF.FileFunction,Legend,Bot*%
%TF.FilePolarity,Positive*%
%FSLAX46Y46*%
G04 Gerber Fmt 4.6, Leading zero omitted, Abs format (unit mm)*
G04 Created by KiCad (PCBNEW 10.0.6) date 2026-10-01 11:25:30*
%MOMM*%
%LPD*%
G01*
G04 APERTURE LIST*
%ADD10C,0.100000*%
%ADD11C,0.150000*%
%ADD12C,0.106680*%
%ADD13C,0.120000*%
%ADD14C,0.127000*%
%ADD15C,0.504000*%
G04 APERTURE END LIST*
D10*
X168196115Y-59372419D02*
X168196115Y-58372419D01*
X168196115Y-58372419D02*
X167815163Y-58372419D01*
X167815163Y-58372419D02*
X167719925Y-58420038D01*
X167719925Y-58420038D02*
X167672306Y-58467657D01*
X167672306Y-58467657D02*
X167624687Y-58562895D01*
X167624687Y-58562895D02*
X167624687Y-58705752D01*
X167624687Y-58705752D02*
X167672306Y-58800990D01*
X167672306Y-58800990D02*
X167719925Y-58848609D01*
X167719925Y-58848609D02*
X167815163Y-58896228D01*
X167815163Y-58896228D02*
X168196115Y-58896228D01*
X166624687Y-59277180D02*
X166672306Y-59324800D01*
X166672306Y-59324800D02*
X166815163Y-59372419D01*
X166815163Y-59372419D02*
X166910401Y-59372419D01*
X166910401Y-59372419D02*
X167053258Y-59324800D01*
X167053258Y-59324800D02*
X167148496Y-59229561D01*
X167148496Y-59229561D02*
X167196115Y-59134323D01*
X167196115Y-59134323D02*
X167243734Y-58943847D01*
X167243734Y-58943847D02*
X167243734Y-58800990D01*
X167243734Y-58800990D02*
X167196115Y-58610514D01*
X167196115Y-58610514D02*
X167148496Y-58515276D01*
X167148496Y-58515276D02*
X167053258Y-58420038D01*
X167053258Y-58420038D02*
X166910401Y-58372419D01*
X166910401Y-58372419D02*
X166815163Y-58372419D01*
X166815163Y-58372419D02*
X166672306Y-58420038D01*
X166672306Y-58420038D02*
X166624687Y-58467657D01*
X165862782Y-58848609D02*
X165719925Y-58896228D01*
X165719925Y-58896228D02*
X165672306Y-58943847D01*
X165672306Y-58943847D02*
X165624687Y-59039085D01*
X165624687Y-59039085D02*
X165624687Y-59181942D01*
X165624687Y-59181942D02*
X165672306Y-59277180D01*
X165672306Y-59277180D02*
X165719925Y-59324800D01*
X165719925Y-59324800D02*
X165815163Y-59372419D01*
X165815163Y-59372419D02*
X166196115Y-59372419D01*
X166196115Y-59372419D02*
X166196115Y-58372419D01*
X166196115Y-58372419D02*
X165862782Y-58372419D01*
X165862782Y-58372419D02*
X165767544Y-58420038D01*
X165767544Y-58420038D02*
X165719925Y-58467657D01*
X165719925Y-58467657D02*
X165672306Y-58562895D01*
X165672306Y-58562895D02*
X165672306Y-58658133D01*
X165672306Y-58658133D02*
X165719925Y-58753371D01*
X165719925Y-58753371D02*
X165767544Y-58800990D01*
X165767544Y-58800990D02*
X165862782Y-58848609D01*
X165862782Y-58848609D02*
X166196115Y-58848609D01*
X165291353Y-58372419D02*
X165053258Y-59372419D01*
X165053258Y-59372419D02*
X164862782Y-58658133D01*
X164862782Y-58658133D02*
X164672306Y-59372419D01*
X164672306Y-59372419D02*
X164434211Y-58372419D01*
X164100877Y-59086704D02*
X163624687Y-59086704D01*
X164196115Y-59372419D02*
X163862782Y-58372419D01*
X163862782Y-58372419D02*
X163529449Y-59372419D01*
X163005639Y-58896228D02*
X163005639Y-59372419D01*
X163338972Y-58372419D02*
X163005639Y-58896228D01*
X163005639Y-58896228D02*
X162672306Y-58372419D01*
X172338972Y-56372419D02*
X172005639Y-57372419D01*
X172005639Y-57372419D02*
X171672306Y-56372419D01*
X171338972Y-57372419D02*
X171338972Y-56705752D01*
X171338972Y-56372419D02*
X171386591Y-56420038D01*
X171386591Y-56420038D02*
X171338972Y-56467657D01*
X171338972Y-56467657D02*
X171291353Y-56420038D01*
X171291353Y-56420038D02*
X171338972Y-56372419D01*
X171338972Y-56372419D02*
X171338972Y-56467657D01*
X170910401Y-57324800D02*
X170815163Y-57372419D01*
X170815163Y-57372419D02*
X170624687Y-57372419D01*
X170624687Y-57372419D02*
X170529449Y-57324800D01*
X170529449Y-57324800D02*
X170481830Y-57229561D01*
X170481830Y-57229561D02*
X170481830Y-57181942D01*
X170481830Y-57181942D02*
X170529449Y-57086704D01*
X170529449Y-57086704D02*
X170624687Y-57039085D01*
X170624687Y-57039085D02*
X170767544Y-57039085D01*
X170767544Y-57039085D02*
X170862782Y-56991466D01*
X170862782Y-56991466D02*
X170910401Y-56896228D01*
X170910401Y-56896228D02*
X170910401Y-56848609D01*
X170910401Y-56848609D02*
X170862782Y-56753371D01*
X170862782Y-56753371D02*
X170767544Y-56705752D01*
X170767544Y-56705752D02*
X170624687Y-56705752D01*
X170624687Y-56705752D02*
X170529449Y-56753371D01*
X170053258Y-57372419D02*
X170053258Y-56372419D01*
X169624687Y-57372419D02*
X169624687Y-56848609D01*
X169624687Y-56848609D02*
X169672306Y-56753371D01*
X169672306Y-56753371D02*
X169767544Y-56705752D01*
X169767544Y-56705752D02*
X169910401Y-56705752D01*
X169910401Y-56705752D02*
X170005639Y-56753371D01*
X170005639Y-56753371D02*
X170053258Y-56800990D01*
X169148496Y-57372419D02*
X169148496Y-56705752D01*
X169148496Y-56896228D02*
X169100877Y-56800990D01*
X169100877Y-56800990D02*
X169053258Y-56753371D01*
X169053258Y-56753371D02*
X168958020Y-56705752D01*
X168958020Y-56705752D02*
X168862782Y-56705752D01*
X168100877Y-56705752D02*
X168100877Y-57372419D01*
X168529448Y-56705752D02*
X168529448Y-57229561D01*
X168529448Y-57229561D02*
X168481829Y-57324800D01*
X168481829Y-57324800D02*
X168386591Y-57372419D01*
X168386591Y-57372419D02*
X168243734Y-57372419D01*
X168243734Y-57372419D02*
X168148496Y-57324800D01*
X168148496Y-57324800D02*
X168100877Y-57277180D01*
X167767543Y-56705752D02*
X167386591Y-56705752D01*
X167624686Y-56372419D02*
X167624686Y-57229561D01*
X167624686Y-57229561D02*
X167577067Y-57324800D01*
X167577067Y-57324800D02*
X167481829Y-57372419D01*
X167481829Y-57372419D02*
X167386591Y-57372419D01*
X167053257Y-57372419D02*
X167053257Y-56372419D01*
X166624686Y-57372419D02*
X166624686Y-56848609D01*
X166624686Y-56848609D02*
X166672305Y-56753371D01*
X166672305Y-56753371D02*
X166767543Y-56705752D01*
X166767543Y-56705752D02*
X166910400Y-56705752D01*
X166910400Y-56705752D02*
X167005638Y-56753371D01*
X167005638Y-56753371D02*
X167053257Y-56800990D01*
X166100876Y-56372419D02*
X166196114Y-56562895D01*
X165719924Y-57324800D02*
X165624686Y-57372419D01*
X165624686Y-57372419D02*
X165434210Y-57372419D01*
X165434210Y-57372419D02*
X165338972Y-57324800D01*
X165338972Y-57324800D02*
X165291353Y-57229561D01*
X165291353Y-57229561D02*
X165291353Y-57181942D01*
X165291353Y-57181942D02*
X165338972Y-57086704D01*
X165338972Y-57086704D02*
X165434210Y-57039085D01*
X165434210Y-57039085D02*
X165577067Y-57039085D01*
X165577067Y-57039085D02*
X165672305Y-56991466D01*
X165672305Y-56991466D02*
X165719924Y-56896228D01*
X165719924Y-56896228D02*
X165719924Y-56848609D01*
X165719924Y-56848609D02*
X165672305Y-56753371D01*
X165672305Y-56753371D02*
X165577067Y-56705752D01*
X165577067Y-56705752D02*
X165434210Y-56705752D01*
X165434210Y-56705752D02*
X165338972Y-56753371D01*
X164196114Y-56372419D02*
X163958019Y-57372419D01*
X163958019Y-57372419D02*
X163767543Y-56658133D01*
X163767543Y-56658133D02*
X163577067Y-57372419D01*
X163577067Y-57372419D02*
X163338972Y-56372419D01*
X162815162Y-57372419D02*
X162910400Y-57324800D01*
X162910400Y-57324800D02*
X162958019Y-57277180D01*
X162958019Y-57277180D02*
X163005638Y-57181942D01*
X163005638Y-57181942D02*
X163005638Y-56896228D01*
X163005638Y-56896228D02*
X162958019Y-56800990D01*
X162958019Y-56800990D02*
X162910400Y-56753371D01*
X162910400Y-56753371D02*
X162815162Y-56705752D01*
X162815162Y-56705752D02*
X162672305Y-56705752D01*
X162672305Y-56705752D02*
X162577067Y-56753371D01*
X162577067Y-56753371D02*
X162529448Y-56800990D01*
X162529448Y-56800990D02*
X162481829Y-56896228D01*
X162481829Y-56896228D02*
X162481829Y-57181942D01*
X162481829Y-57181942D02*
X162529448Y-57277180D01*
X162529448Y-57277180D02*
X162577067Y-57324800D01*
X162577067Y-57324800D02*
X162672305Y-57372419D01*
X162672305Y-57372419D02*
X162815162Y-57372419D01*
X162053257Y-57372419D02*
X162053257Y-56705752D01*
X162053257Y-56896228D02*
X162005638Y-56800990D01*
X162005638Y-56800990D02*
X161958019Y-56753371D01*
X161958019Y-56753371D02*
X161862781Y-56705752D01*
X161862781Y-56705752D02*
X161767543Y-56705752D01*
X161434209Y-57372419D02*
X161434209Y-56372419D01*
X161338971Y-56991466D02*
X161053257Y-57372419D01*
X161053257Y-56705752D02*
X161434209Y-57086704D01*
X160672304Y-57324800D02*
X160577066Y-57372419D01*
X160577066Y-57372419D02*
X160386590Y-57372419D01*
X160386590Y-57372419D02*
X160291352Y-57324800D01*
X160291352Y-57324800D02*
X160243733Y-57229561D01*
X160243733Y-57229561D02*
X160243733Y-57181942D01*
X160243733Y-57181942D02*
X160291352Y-57086704D01*
X160291352Y-57086704D02*
X160386590Y-57039085D01*
X160386590Y-57039085D02*
X160529447Y-57039085D01*
X160529447Y-57039085D02*
X160624685Y-56991466D01*
X160624685Y-56991466D02*
X160672304Y-56896228D01*
X160672304Y-56896228D02*
X160672304Y-56848609D01*
X160672304Y-56848609D02*
X160624685Y-56753371D01*
X160624685Y-56753371D02*
X160529447Y-56705752D01*
X160529447Y-56705752D02*
X160386590Y-56705752D01*
X160386590Y-56705752D02*
X160291352Y-56753371D01*
X159815161Y-57372419D02*
X159815161Y-56372419D01*
X159386590Y-57372419D02*
X159386590Y-56848609D01*
X159386590Y-56848609D02*
X159434209Y-56753371D01*
X159434209Y-56753371D02*
X159529447Y-56705752D01*
X159529447Y-56705752D02*
X159672304Y-56705752D01*
X159672304Y-56705752D02*
X159767542Y-56753371D01*
X159767542Y-56753371D02*
X159815161Y-56800990D01*
X158767542Y-57372419D02*
X158862780Y-57324800D01*
X158862780Y-57324800D02*
X158910399Y-57277180D01*
X158910399Y-57277180D02*
X158958018Y-57181942D01*
X158958018Y-57181942D02*
X158958018Y-56896228D01*
X158958018Y-56896228D02*
X158910399Y-56800990D01*
X158910399Y-56800990D02*
X158862780Y-56753371D01*
X158862780Y-56753371D02*
X158767542Y-56705752D01*
X158767542Y-56705752D02*
X158624685Y-56705752D01*
X158624685Y-56705752D02*
X158529447Y-56753371D01*
X158529447Y-56753371D02*
X158481828Y-56800990D01*
X158481828Y-56800990D02*
X158434209Y-56896228D01*
X158434209Y-56896228D02*
X158434209Y-57181942D01*
X158434209Y-57181942D02*
X158481828Y-57277180D01*
X158481828Y-57277180D02*
X158529447Y-57324800D01*
X158529447Y-57324800D02*
X158624685Y-57372419D01*
X158624685Y-57372419D02*
X158767542Y-57372419D01*
X158005637Y-56705752D02*
X158005637Y-57705752D01*
X158005637Y-56753371D02*
X157910399Y-56705752D01*
X157910399Y-56705752D02*
X157719923Y-56705752D01*
X157719923Y-56705752D02*
X157624685Y-56753371D01*
X157624685Y-56753371D02*
X157577066Y-56800990D01*
X157577066Y-56800990D02*
X157529447Y-56896228D01*
X157529447Y-56896228D02*
X157529447Y-57181942D01*
X157529447Y-57181942D02*
X157577066Y-57277180D01*
X157577066Y-57277180D02*
X157624685Y-57324800D01*
X157624685Y-57324800D02*
X157719923Y-57372419D01*
X157719923Y-57372419D02*
X157910399Y-57372419D01*
X157910399Y-57372419D02*
X158005637Y-57324800D01*
D11*
X165833333Y-78254819D02*
X165833333Y-78969104D01*
X165833333Y-78969104D02*
X165880952Y-79111961D01*
X165880952Y-79111961D02*
X165976190Y-79207200D01*
X165976190Y-79207200D02*
X166119047Y-79254819D01*
X166119047Y-79254819D02*
X166214285Y-79254819D01*
X164833333Y-79254819D02*
X165404761Y-79254819D01*
X165119047Y-79254819D02*
X165119047Y-78254819D01*
X165119047Y-78254819D02*
X165214285Y-78397676D01*
X165214285Y-78397676D02*
X165309523Y-78492914D01*
X165309523Y-78492914D02*
X165404761Y-78540533D01*
D12*
X164239339Y-99096547D02*
X164239339Y-99744166D01*
X164239339Y-99744166D02*
X164201244Y-99820356D01*
X164201244Y-99820356D02*
X164163149Y-99858452D01*
X164163149Y-99858452D02*
X164086958Y-99896547D01*
X164086958Y-99896547D02*
X163934577Y-99896547D01*
X163934577Y-99896547D02*
X163858387Y-99858452D01*
X163858387Y-99858452D02*
X163820292Y-99820356D01*
X163820292Y-99820356D02*
X163782196Y-99744166D01*
X163782196Y-99744166D02*
X163782196Y-99096547D01*
X162982197Y-99896547D02*
X163439340Y-99896547D01*
X163210768Y-99896547D02*
X163210768Y-99096547D01*
X163210768Y-99096547D02*
X163286959Y-99210832D01*
X163286959Y-99210832D02*
X163363149Y-99287023D01*
X163363149Y-99287023D02*
X163439340Y-99325118D01*
%TO.C,J1*%
D13*
X161440000Y-72060000D02*
X161440000Y-76310000D01*
X161440000Y-76310000D02*
X162460000Y-76310000D01*
X162460000Y-74710000D02*
X163740000Y-74710000D01*
X162460000Y-76310000D02*
X162460000Y-74710000D01*
X163160000Y-68490000D02*
X167840000Y-68490000D01*
X163740000Y-74710000D02*
X163740000Y-77600000D01*
X168540000Y-74710000D02*
X167260000Y-74710000D01*
X168540000Y-76310000D02*
X168540000Y-74710000D01*
X169560000Y-72060000D02*
X169560000Y-76310000D01*
X169560000Y-76310000D02*
X168540000Y-76310000D01*
%TO.C,U1*%
D10*
X157351400Y-80518700D02*
X157351400Y-97663700D01*
X159256400Y-78613700D02*
X173226400Y-78613700D01*
D14*
X161746400Y-99568700D02*
X161750128Y-100578972D01*
X162250128Y-101078700D02*
X170245400Y-101078700D01*
X170745400Y-100578700D02*
X170745400Y-99568700D01*
D10*
X173226400Y-99568700D02*
X159256400Y-99568700D01*
X175131400Y-80518700D02*
X175131400Y-97663700D01*
X157351400Y-80518700D02*
G75*
G02*
X159256400Y-78613700I1905001J-1D01*
G01*
X159256400Y-99572700D02*
G75*
G02*
X157351400Y-97667700I0J1905000D01*
G01*
D14*
X162250128Y-101078700D02*
G75*
G02*
X161750130Y-100578972I22J500020D01*
G01*
X170745400Y-100578700D02*
G75*
G02*
X170245400Y-101078700I-500000J0D01*
G01*
D10*
X173226400Y-78613700D02*
G75*
G02*
X175131400Y-80518700I0J-1905000D01*
G01*
X175131400Y-97663700D02*
G75*
G02*
X173226400Y-99568700I-1905000J0D01*
G01*
D15*
X157393400Y-99152700D02*
G75*
G02*
X156889400Y-99152700I-252000J0D01*
G01*
X156889400Y-99152700D02*
G75*
G02*
X157393400Y-99152700I252000J0D01*
G01*
X158667400Y-98435700D02*
G75*
G02*
X158163400Y-98435700I-252000J0D01*
G01*
X158163400Y-98435700D02*
G75*
G02*
X158667400Y-98435700I252000J0D01*
G01*
%TD*%
M02*
